<svg width="18" height="18" viewBox="0 0 18 18" fill="none" xmlns="http://www.w3.org/2000/svg">
<path d="M3.85639 7.79179C5.21639 10.4646 7.4075 12.6462 10.0803 14.0157L12.1581 11.9379C12.4131 11.6829 12.7908 11.5979 13.1214 11.7112C14.1792 12.0607 15.3219 12.2496 16.4931 12.2496C17.0125 12.2496 17.4375 12.6746 17.4375 13.194V16.4901C17.4375 17.0096 17.0125 17.4346 16.4931 17.4346C7.62472 17.4346 0.4375 10.2473 0.4375 1.37901C0.4375 0.85957 0.8625 0.43457 1.38194 0.43457H4.6875C5.20694 0.43457 5.63194 0.85957 5.63194 1.37901C5.63194 2.55957 5.82083 3.6929 6.17028 4.75068C6.27417 5.08124 6.19861 5.44957 5.93417 5.71401L3.85639 7.79179Z" fill="white"/>
</svg>
